<svg xmlns="http://www.w3.org/2000/svg" viewBox="0 0 208 77.98"><defs><style>.cls-1{fill:#0094f9;}</style></defs><title>Ресурс 15</title><g id="Слой_2" data-name="Слой 2"><g id="Слой_1-2" data-name="Слой 1"><path d="M.66,0H6.33V38.92H25v4.76H.66Z"/><path d="M58.67,27.71c0,11.6-8.05,16.68-15.59,16.68C34.58,44.39,28,38.2,28,28.25c0-10.49,6.89-16.62,15.56-16.62C52.59,11.63,58.67,18.16,58.67,27.71Zm-24.85.36c0,6.88,3.94,12,9.5,12S52.87,35,52.87,27.9c0-5.3-2.67-12-9.45-12S33.82,22.13,33.82,28.07Z"/><path d="M67.61,12.34l6.85,18.52c.74,2.07,1.5,4.53,2,6.4h.16c.56-1.85,1.25-4.25,2-6.52l6.2-18.4h6L82.31,34.66c-4.06,10.78-6.85,16.26-10.74,19.66a16.79,16.79,0,0,1-5.37,3.21A6.31,6.31,0,0,1,64,58V53c1.34-.36,2.25-1.08,4.16-2.55s3.1-2.88,4.77-6.35a3.4,3.4,0,0,0,.44-1.37,3.69,3.69,0,0,0-.4-1.47L61.42,12.34Z"/><path d="M96.2,20.8c0-3.27-.1-5.86-.26-8.46h5l.3,5h.16a10.8,10.8,0,0,1,9.89-5.75,9.2,9.2,0,0,1,8.83,6.28h.13a12.63,12.63,0,0,1,3.54-4.08,10.66,10.66,0,0,1,6.9-2.2c4.18,0,10.34,2.69,10.34,13.59V43.68h-5.56V26c0-6.07-2.24-9.66-6.8-9.66a7.43,7.43,0,0,0-6.78,5.13,9.11,9.11,0,0,0-.47,2.86v19.4h-5.56V24.87c0-5-2.21-8.58-6.52-8.58-3.55,0-6.15,2.83-7.1,5.69a9,9,0,0,0-.43,2.81V43.68H96.2Z"/><path d="M167.75,43.68l-.5-4h-.17a11.65,11.65,0,0,1-9.59,4.67c-6.33,0-9.57-4.49-9.57-9,0-7.59,6.73-11.76,18.83-11.68v-.66c0-2.55-.71-7.27-7.13-7.23a15.31,15.31,0,0,0-8.17,2.33l-1.29-3.79a19.76,19.76,0,0,1,10.34-2.74c9.58,0,11.92,6.54,11.92,12.82V36.18a49.25,49.25,0,0,0,.47,7.5Zm-.88-16c-6.17-.13-13.23,1-13.23,7,0,3.74,2.46,5.46,5.32,5.46a7.86,7.86,0,0,0,7.64-5.25,6.13,6.13,0,0,0,.27-1.79Z"/><path d="M184.37,12.34l4.49,6.71c1.18,1.76,2.15,3.35,3.19,5.1h.15c1-1.84,2.08-3.46,3.17-5.16l4.35-6.65h6.21L195.24,27.48l11,16.2h-6.45l-4.64-7c-1.21-1.82-2.25-3.58-3.35-5.46h-.15c-1,1.91-2.1,3.56-3.32,5.47l-4.5,7h-6.29l11.15-16L178,12.34Z"/><path class="cls-1" d="M113.27,59.66c-2,0-2.8,1.94-2.8,3.81,0,2.15,1.08,3.78,2.78,3.78S116,65.68,116,63.43C116,61.67,115.23,59.66,113.27,59.66Z"/><path class="cls-1" d="M169,59.66c-2,0-2.8,1.94-2.8,3.81,0,2.15,1.07,3.78,2.78,3.78s2.75-1.57,2.75-3.82C171.71,61.67,170.93,59.66,169,59.66Z"/><path class="cls-1" d="M81.38,48c-.38.59-.84,1.26-1.38,2a28.36,28.36,0,0,1-8,8,21.51,21.51,0,0,1-11,3V48H0V78H208V48ZM99.44,69.29A7.22,7.22,0,0,1,96,68.51l.57-2.06a6.26,6.26,0,0,0,2.85.82c1.25,0,1.8-.53,1.8-1.26s-.46-1.14-1.83-1.63c-2.19-.75-3.11-1.95-3.1-3.27,0-2,1.64-3.51,4.25-3.51a6.49,6.49,0,0,1,3,.67l-.56,2a5.06,5.06,0,0,0-2.37-.64c-1,0-1.57.49-1.57,1.18s.54,1.05,2,1.57c2,.72,3,1.76,3,3.41C104,67.82,102.39,69.29,99.44,69.29Zm13.72,0a5.41,5.41,0,0,1-5.6-5.76,5.54,5.54,0,0,1,5.79-5.94,5.37,5.37,0,0,1,5.56,5.74A5.54,5.54,0,0,1,113.16,69.3ZM126,69.05h-2.83V52.73H126Zm12.67,0-.14-1.69h-.07a4.06,4.06,0,0,1-3.58,1.94c-2,0-3.9-1.22-3.9-4.88V57.86h2.83V64c0,1.86.59,3,2.09,3a2.35,2.35,0,0,0,2.16-1.51,2.39,2.39,0,0,0,.15-.88V57.86h2.84V65.7c0,1.33,0,2.44.09,3.35ZM152.05,60h-2.7v4.94c0,1.37.37,2.06,1.45,2.06a4.24,4.24,0,0,0,1.1-.12L152,69a6.37,6.37,0,0,1-2.06.29,3.29,3.29,0,0,1-2.44-.92,4.48,4.48,0,0,1-.88-3.14V60H145V57.86h1.6V55.32l2.77-.67v3.21h2.7ZM159,69.05h-2.84V57.86H159Zm-1.45-12.8a1.53,1.53,0,1,1,1.61-1.53A1.5,1.5,0,0,1,157.53,56.25Zm11.34,13a5.4,5.4,0,0,1-5.6-5.76,5.54,5.54,0,0,1,5.79-5.94,5.37,5.37,0,0,1,5.56,5.74A5.55,5.55,0,0,1,168.87,69.3ZM189,69.05h-2.83V62.74c0-1.61-.59-2.83-2.13-2.83a2.35,2.35,0,0,0-2.21,1.66,2.93,2.93,0,0,0-.13.89v6.59h-2.83V61.19c0-1.3,0-2.36-.09-3.33h2.47l.14,1.68h.07a4.07,4.07,0,0,1,3.57-1.94c2,0,4,1.26,4,4.8Zm7.69.24a7.22,7.22,0,0,1-3.41-.78l.57-2.06a6.26,6.26,0,0,0,2.85.82c1.25,0,1.8-.53,1.8-1.26s-.46-1.14-1.83-1.63c-2.2-.75-3.11-1.95-3.1-3.27,0-2,1.64-3.51,4.25-3.51a6.49,6.49,0,0,1,3,.67l-.56,2a5.06,5.06,0,0,0-2.37-.64c-1,0-1.57.49-1.57,1.18s.54,1.05,2,1.57c2,.72,3,1.76,3,3.41C201.27,67.82,199.68,69.29,196.73,69.29Z"/></g></g></svg>