<svg xmlns="http://www.w3.org/2000/svg" xml:space="preserve" width="2480px" height="2480px" version="1.1" style="shape-rendering:geometricPrecision; text-rendering:geometricPrecision; image-rendering:optimizeQuality; fill-rule:evenodd; clip-rule:evenodd" viewBox="0 0 2480 2480" xmlns:xlink="http://www.w3.org/1999/xlink" xmlns:dc="http://purl.org/dc/elements/1.1/" xmlns:cc="http://creativecommons.org/ns#" xmlns:rdf="http://www.w3.org/1999/02/22-rdf-syntax-ns#" xmlns:svg="http://www.w3.org/2000/svg">
    <polygon style="fill:#2B71BF;fill-rule:nonzero" points="5,2483 2493,2483 2493,-5 5,-5 "/>
    <path style="fill:white;fill-rule:nonzero" d="M954 995c77,0 139,-62 139,-139 0,-77 -62,-140 -139,-140 -77,0 -139,63 -139,140 0,77 62,139 139,139z"/>
    <path style="fill:white;fill-rule:nonzero" d="M1544 995c77,0 140,-62 140,-139 0,-77 -63,-140 -140,-140 -77,0 -139,63 -139,140 0,77 62,139 139,139z"/>
    <path style="fill:white;fill-rule:nonzero" d="M2006 1576l-173 -297c-23,-39 -74,-53 -114,-30 -40,24 -53,75 -30,115l20 35c-120,125 -285,195 -460,195 -175,0 -340,-70 -461,-195l21 -35c23,-40 10,-91 -30,-115 -40,-23 -91,-9 -114,30l-173 297c-24,40 -10,91 30,114 13,8 27,12 42,12 28,0 56,-15 72,-42l66 -112c148,137 342,213 547,213 205,0 399,-76 547,-213l66 112c16,27 43,42 72,42 14,0 29,-4 42,-12 40,-23 53,-74 30,-114z"/>
</svg>
