<svg xmlns="http://www.w3.org/2000/svg" xml:space="preserve" width="1240px" height="1240px" version="1.1" style="shape-rendering:geometricPrecision; text-rendering:geometricPrecision; image-rendering:optimizeQuality; fill-rule:evenodd; clip-rule:evenodd" viewBox="0 0 1240 1240" xmlns:xlink="http://www.w3.org/1999/xlink" xmlns:rdf="http://www.w3.org/1999/02/22-rdf-syntax-ns#" xmlns:cc="http://creativecommons.org/ns#" xmlns:dc="http://purl.org/dc/elements/1.1/">
    <path style="fill:#1DA1F2" d="M393 1113c462,0 715,-383 715,-716 0,-11 0,-21 0,-32 49,-36 91,-80 125,-130 -45,20 -93,33 -144,39 52,-31 91,-80 110,-139 -48,29 -102,50 -159,61 -46,-49 -112,-79 -184,-79 -139,0 -251,112 -251,251 0,20 2,39 6,58 -209,-11 -394,-111 -518,-263 -22,37 -34,80 -34,126 0,87 44,164 111,209 -41,-1 -80,-12 -113,-31 0,1 0,2 0,3 0,122 86,224 201,247 -21,6 -43,9 -66,9 -16,0 -32,-2 -47,-5 32,100 125,173 235,175 -86,67 -195,107 -313,107 -20,0 -40,-1 -60,-3 112,71 244,113 386,113l0 0zm0 0l0 0 0 0z"/>
</svg>
