<svg version="1.1" xmlns="http://www.w3.org/2000/svg" xmlns:xlink="http://www.w3.org/1999/xlink" x="0px" y="0px" viewBox="0 0 512 512" style="enable-background:new 0 0 512 512;" xml:space="preserve">
<g>
	<polygon points="21.8,503.6 11.4,514 21.8,514 	"/>
	<polygon points="42.9,482.5 42.9,514 87,514 87,438.6 	"/>
	<polygon points="103.5,422.2 103.5,514 136.5,514 136.5,389.2 	"/>
	<polygon points="165.8,359.9 165.8,514 184.2,514 184.2,341.6 	"/>
	<polygon points="214.5,311.4 214.5,514 245.6,514 245.6,280.3 	"/>
	<polygon points="270.4,255.6 270.4,514 299.8,514 299.8,226.3 	"/>
	<polygon points="331.9,194.3 331.9,514 348.4,514 348.4,177.9 	"/>
	<polygon points="373.1,153.2 373.1,514 417.2,514 417.2,109.2 	"/>
	<polygon points="434.6,91.9 434.6,514 465.8,514 465.8,60.7 	"/>
	<polygon points="496,0 496,5.9 501,1 496,5.9 496,16.7 512.7,0 	"/>
	<polygon points="496,30.5 496,514 514.4,514 514.4,12.2 	"/>
</g>
<g>
	<path d="M160,0H0v160h160V0z M128,128H32V32h96V128z"/>
	<rect x="64" y="64" width="32" height="32"/>
	<polygon points="385,128 384,128 384,117.7 352,149.6 352,160 353.1,160 	"/>
	<polygon points="384,32 469.9,32 501,1 469.9,32 480,32 480,32.8 512,0.7 512,0 352,0 352,149.6 384,117.7 	"/>
	<polygon points="416,64 416,85.8 437.8,64 	"/>
	<polygon points="448,64.8 448,64 437.8,64 416,85.8 416,96 416.9,96 	"/>
	<polygon points="33.9,480 32,480 32,468.8 0,500.7 0,512 2,512 	"/>
	<polygon points="32,384 117,384 149.1,352 0,352 0,500.7 32,468.8 	"/>
	<polygon points="128,385.7 160,353.6 160,352 149.1,352 117,384 128,384 	"/>
	<polygon points="96,417.7 96,416 84.9,416 64,436.9 64,448 65.8,448 	"/>
	<polygon points="64,416 64,436.9 84.9,416 	"/>
	<rect x="256" width="64" height="32"/>
	<polygon points="256,128 288,128 288,96 320,96 320,64 224,64 224,32 192,32 192,64 192,80 192,96 256,96 	"/>
	<rect x="192" y="128" width="32" height="32"/>
	<polygon points="320,181.5 320,160 288,160 288,192 192,192 192,224 277.4,224 	"/>
	<polygon points="320,193.2 320,181.5 277.4,224 289.2,224 	"/>
	<polygon points="32,288 64,288 64,256 32,256 32,192 0,192 0,320 32,320 	"/>
	<rect x="64" y="192" width="32" height="32"/>
	<polygon points="128,288 144,288 160,288 192,288 192,309.2 224,277.3 224,256 160,256 160,192 128,192 128,256 96,256 96,320
		128,320 	"/>
	<polygon points="225.4,288 224,288 224,277.3 192,309.2 192,320 193.5,320 	"/>
</g>
</svg>
